<svg xmlns="http://www.w3.org/2000/svg" version="1.1" xmlns:xlink="http://www.w3.org/1999/xlink" xmlns:svgjs="http://svgjs.com/svgjs" width="1440" height="300" preserveAspectRatio="none" viewBox="0 0 1440 300"><g mask="url(&quot;#SvgjsMask3021&quot;)" fill="none"><rect width="1440" height="300" x="0" y="0" fill="#0e2a47"></rect><rect width="140.4" height="140.4" clip-path="url(&quot;#SvgjsClipPath3022&quot;)" x="663.36" y="93.3" fill="url(#SvgjsPattern3023)" transform="rotate(29.96, 733.56, 163.5)"></rect><path d="M1097.87 214.35000000000002 L1115.33 159.71L1126.912496528713 207.34249652871313z" fill="#037b0b"></path><rect width="144.72" height="144.72" clip-path="url(&quot;#SvgjsClipPath3024&quot;)" x="1045.72" y="193.1" fill="url(#SvgjsPattern3025)" transform="rotate(133.68, 1118.08, 265.46)"></rect><path d="M1281.98 238.29L1287.74 249.72 1277.85 257.86 1283.62 269.29 1273.73 277.43 1279.49 288.86 1269.6 297" stroke="#d3b714" stroke-width="2.59"></path><circle r="25" cx="1274.93" cy="219.76" fill="#e73635"></circle><path d="M1380.69 281.85L1384.84 269.73 1397.57 271.12 1401.71 259 1414.44 260.38 1418.59 248.27 1431.32 249.65M1384.99 288.6L1389.13 276.48 1401.86 277.87 1406.01 265.75 1418.74 267.13 1422.88 255.02 1435.61 256.4M1389.28 295.35L1393.43 283.23 1406.16 284.62 1410.3 272.5 1423.03 273.88 1427.18 261.77 1439.91 263.15" stroke="#037b0b" stroke-width="1.47" stroke-dasharray="3, 2"></path><rect width="120" height="120" clip-path="url(&quot;#SvgjsClipPath3026&quot;)" x="1269.77" y="-37.13" fill="url(#SvgjsPattern3027)" transform="rotate(85.05, 1329.77, 22.87)"></rect><rect width="100" height="100" clip-path="url(&quot;#SvgjsClipPath3028&quot;)" x="1226.98" y="227.77" fill="url(#SvgjsPattern3029)" transform="rotate(139.6, 1276.98, 277.77)"></rect><rect width="92" height="92" clip-path="url(&quot;#SvgjsClipPath3030&quot;)" x="474.57" y="239.38" fill="url(#SvgjsPattern3031)" transform="rotate(128.73, 520.57, 285.38)"></rect><path d="M544.9 206.76L543.3 219.46 530.55 220.69 528.96 233.4 516.21 234.63 514.61 247.33 501.86 248.56" stroke="#037b0b" stroke-width="1.52" stroke-dasharray="3, 2"></path><rect width="84" height="84" clip-path="url(&quot;#SvgjsClipPath3032&quot;)" x="766.66" y="-5.11" fill="url(#SvgjsPattern3033)" transform="rotate(204.46, 808.66, 36.89)"></rect><circle r="25" cx="966.51" cy="228.96" fill="#e73635"></circle><path d="M1305.44 47.22a5.6 5.6 0 1 0 9.98 5.09 5.6 5.6 0 1 0-9.98-5.09zM1319.69 54.49a5.6 5.6 0 1 0 9.98 5.09 5.6 5.6 0 1 0-9.98-5.09zM1333.95 61.76a5.6 5.6 0 1 0 9.97 5.09 5.6 5.6 0 1 0-9.97-5.09zM1348.2 69.03a5.6 5.6 0 1 0 9.97 5.09 5.6 5.6 0 1 0-9.97-5.09zM1269.66 46.93a5.6 5.6 0 1 0 9.98 5.09 5.6 5.6 0 1 0-9.98-5.09zM1283.92 54.2a5.6 5.6 0 1 0 9.97 5.09 5.6 5.6 0 1 0-9.97-5.09zM1298.17 61.47a5.6 5.6 0 1 0 9.98 5.09 5.6 5.6 0 1 0-9.98-5.09zM1312.42 68.74a5.6 5.6 0 1 0 9.98 5.09 5.6 5.6 0 1 0-9.98-5.09zM1233.89 46.64a5.6 5.6 0 1 0 9.98 5.09 5.6 5.6 0 1 0-9.98-5.09zM1248.14 53.91a5.6 5.6 0 1 0 9.98 5.09 5.6 5.6 0 1 0-9.98-5.09zM1262.39 61.18a5.6 5.6 0 1 0 9.98 5.09 5.6 5.6 0 1 0-9.98-5.09zM1276.65 68.45a5.6 5.6 0 1 0 9.97 5.09 5.6 5.6 0 1 0-9.97-5.09z" fill="#e73635"></path><circle r="31.86142341392515" cx="157.12" cy="106.33" stroke="#d3b714" stroke-width="2.67" stroke-dasharray="3, 2"></circle><circle r="26.290836234650307" cx="1252.82" cy="62.07" stroke="#d3b714" stroke-width="2.07" stroke-dasharray="3, 3"></circle><circle r="39.355421855856974" cx="1197.74" cy="10.41" fill="#e73635"></circle><rect width="86.64" height="86.64" clip-path="url(&quot;#SvgjsClipPath3034&quot;)" x="124.76" y="235.5" fill="url(#SvgjsPattern3035)" transform="rotate(35.04, 168.08, 278.82)"></rect><path d="M417.93 115.21L406.24 120.43 398.58 110.16 386.88 115.38 379.23 105.11 367.53 110.33 359.87 100.07M419.95 107.47L408.26 112.69 400.6 102.42 388.9 107.64 381.25 97.37 369.55 102.59 361.89 92.33" stroke="#037b0b" stroke-width="1" stroke-dasharray="4, 4"></path><rect width="131.6" height="131.6" clip-path="url(&quot;#SvgjsClipPath3036&quot;)" x="1070.92" y="80.41" fill="url(#SvgjsPattern3037)" transform="rotate(142.82, 1136.72, 146.21)"></rect><circle r="33.29394237408799" cx="1226.65" cy="18.46" fill="#d3b714"></circle><rect width="122" height="122" clip-path="url(&quot;#SvgjsClipPath3038&quot;)" x="65.27" y="237.85" fill="url(#SvgjsPattern3039)" transform="rotate(167.08, 126.27, 298.85)"></rect><path d="M76.88 296.6L88.22 290.64 96.52 300.39 107.85 294.43 116.16 304.18 127.49 298.22 135.79 307.97" stroke="#037b0b" stroke-width="1" stroke-dasharray="2, 2"></path></g><defs><mask id="SvgjsMask3021"><rect width="1440" height="300" fill="#ffffff"></rect></mask><pattern x="0" y="0" width="7.8" height="7.8" patternUnits="userSpaceOnUse" id="SvgjsPattern3023"><path d="M3.9 1L3.9 6.8M1 3.9L6.8 3.9" stroke="#d3b714" fill="none" stroke-width="2.52"></path></pattern><clipPath id="SvgjsClipPath3022"><circle r="35.1" cx="733.56" cy="163.5"></circle></clipPath><pattern x="0" y="0" width="144.72" height="12.06" patternUnits="userSpaceOnUse" id="SvgjsPattern3025"><rect width="144.72" height="6.03" x="0" y="0" fill="#037b0b"></rect><rect width="144.72" height="6.03" x="0" y="6.03" fill="rgba(0, 0, 0, 0)"></rect></pattern><clipPath id="SvgjsClipPath3024"><circle r="36.18" cx="1118.08" cy="265.46"></circle></clipPath><pattern x="0" y="0" width="120" height="6" patternUnits="userSpaceOnUse" id="SvgjsPattern3027"><rect width="120" height="3" x="0" y="0" fill="#d3b714"></rect><rect width="120" height="3" x="0" y="3" fill="rgba(0, 0, 0, 0)"></rect></pattern><clipPath id="SvgjsClipPath3026"><circle r="30" cx="1329.77" cy="22.87"></circle></clipPath><pattern x="0" y="0" width="10" height="10" patternUnits="userSpaceOnUse" id="SvgjsPattern3029"><path d="M5 1L5 9M1 5L9 5" stroke="#037b0b" fill="none" stroke-width="2.76"></path></pattern><clipPath id="SvgjsClipPath3028"><circle r="25" cx="1276.98" cy="277.77"></circle></clipPath><pattern x="0" y="0" width="92" height="9.2" patternUnits="userSpaceOnUse" id="SvgjsPattern3031"><rect width="92" height="4.6" x="0" y="0" fill="#037b0b"></rect><rect width="92" height="4.6" x="0" y="4.6" fill="rgba(0, 0, 0, 0)"></rect></pattern><clipPath id="SvgjsClipPath3030"><circle r="23" cx="520.57" cy="285.38"></circle></clipPath><pattern x="0" y="0" width="6" height="6" patternUnits="userSpaceOnUse" id="SvgjsPattern3033"><path d="M3 1L3 5M1 3L5 3" stroke="#d3b714" fill="none" stroke-width="1.79"></path></pattern><clipPath id="SvgjsClipPath3032"><circle r="21" cx="808.66" cy="36.89"></circle></clipPath><pattern x="0" y="0" width="86.64" height="7.22" patternUnits="userSpaceOnUse" id="SvgjsPattern3035"><rect width="86.64" height="3.61" x="0" y="0" fill="#037b0b"></rect><rect width="86.64" height="3.61" x="0" y="3.61" fill="rgba(0, 0, 0, 0)"></rect></pattern><clipPath id="SvgjsClipPath3034"><circle r="21.66" cx="168.08" cy="278.82"></circle></clipPath><pattern x="0" y="0" width="13.16" height="13.16" patternUnits="userSpaceOnUse" id="SvgjsPattern3037"><path d="M6.58 1L6.58 12.16M1 6.58L12.16 6.58" stroke="#e73635" fill="none" stroke-width="1"></path></pattern><clipPath id="SvgjsClipPath3036"><circle r="32.9" cx="1136.72" cy="146.21"></circle></clipPath><pattern x="0" y="0" width="122" height="12.2" patternUnits="userSpaceOnUse" id="SvgjsPattern3039"><rect width="122" height="6.1" x="0" y="0" fill="#037b0b"></rect><rect width="122" height="6.1" x="0" y="6.1" fill="rgba(0, 0, 0, 0)"></rect></pattern><clipPath id="SvgjsClipPath3038"><circle r="30.5" cx="126.27" cy="298.85"></circle></clipPath></defs></svg>