<svg xmlns="http://www.w3.org/2000/svg" version="1.1" xmlns:xlink="http://www.w3.org/1999/xlink" xmlns:svgjs="http://svgjs.com/svgjs" width="800" height="880" preserveAspectRatio="none" viewBox="0 0 800 880"><g mask="url(&quot;#SvgjsMask1011&quot;)" fill="none"><rect width="800" height="880" x="0" y="0" fill="#0e2a47"></rect><path d="M488.14 504.75L539.97 504.75L539.97 567.47L488.14 567.47z" fill="#e73635"></path><path d="M365.71 369.33 a56.97 56.97 0 1 0 113.94 0 a56.97 56.97 0 1 0 -113.94 0z" stroke="#e73635"></path><path d="M64.4 793.08L127.69 793.08L127.69 856.37L64.4 856.37z" stroke="#d3b714"></path><path d="M71.15 265.52a25.64 25.64 0 1 0-46.63 21.34z" stroke="#037b0b"></path><path d="M99.17 327.78 a21.46 21.46 0 1 0 42.92 0 a21.46 21.46 0 1 0 -42.92 0z" stroke="#037b0b"></path><path d="M7.3 293.42 a67.21 67.21 0 1 0 134.42 0 a67.21 67.21 0 1 0 -134.42 0z" stroke="#037b0b"></path><path d="M372.51 736.92a38.2 38.2 0 1 0-26.67-71.59z" fill="#037b0b"></path><path d="M55.41 184.72L123.74 184.72L123.74 214.02L55.41 214.02z" stroke="#d3b714"></path><path d="M221.22 332.86a76.59 76.59 0 1 0-55.59-142.74z" stroke="#e73635"></path><path d="M185.55 204.25L189.62 204.25L189.62 255.22L185.55 255.22z" stroke="#e73635"></path><path d="M602.04 817.31L616.45 817.31L616.45 831.72L602.04 831.72z" stroke="#037b0b"></path><path d="M614.25 55.25 a42.63 42.63 0 1 0 85.26 0 a42.63 42.63 0 1 0 -85.26 0z" stroke="#d3b714"></path><path d="M654.3 320.94L691.59 320.94L691.59 358.23L654.3 358.23z" stroke="#e73635"></path><path d="M301.69 208.61L361.39 208.61L361.39 275.39L301.69 275.39z" stroke="#d3b714"></path></g><defs><mask id="SvgjsMask1011"><rect width="800" height="880" fill="#ffffff"></rect></mask></defs></svg>