<svg xmlns="http://www.w3.org/2000/svg" version="1.1" xmlns:xlink="http://www.w3.org/1999/xlink" xmlns:svgjs="http://svgjs.com/svgjs" width="1400" height="780" preserveAspectRatio="none" viewBox="0 0 1400 780"><g mask="url(&quot;#SvgjsMask1032&quot;)" fill="none"><rect width="1400" height="780" x="0" y="0" fill="#0e2a47"></rect><path d="M312.35 779.77L314.95 779.77L314.95 782.37L312.35 782.37z" stroke="#d3b714"></path><path d="M413.46 44.73L429.47 44.73L429.47 60.74L413.46 60.74z" fill="#d3b714"></path><path d="M286.42 612.31 a30.97 30.97 0 1 0 61.94 0 a30.97 30.97 0 1 0 -61.94 0z" fill="#e73635"></path><path d="M1390.29 654.33L1428.44 654.33L1428.44 709.79L1390.29 709.79z" stroke="#d3b714"></path><path d="M251.38 532.04 a45.32 45.32 0 1 0 90.64 0 a45.32 45.32 0 1 0 -90.64 0z" stroke="#d3b714"></path><path d="M509.23 46.29L575.34 46.29L575.34 50.66L509.23 50.66z" stroke="#e73635"></path><path d="M681.46 396.02L688.79 396.02L688.79 403.35L681.46 403.35z" fill="#d3b714"></path><path d="M249.18 552.15 a57.07 57.07 0 1 0 114.14 0 a57.07 57.07 0 1 0 -114.14 0z" stroke="#e73635"></path><path d="M88.53 626.71L155.89 626.71L155.89 697.16L88.53 697.16z" fill="#037b0b"></path><path d="M1103.97 197.37 a5.1 5.1 0 1 0 10.2 0 a5.1 5.1 0 1 0 -10.2 0z" fill="#037b0b"></path><path d="M956.01 776.22L1032.57 776.22L1032.57 783.31L956.01 783.31z" stroke="#037b0b"></path><path d="M207.89 725.23 a76.52 76.52 0 1 0 153.04 0 a76.52 76.52 0 1 0 -153.04 0z" stroke="#d3b714"></path><path d="M320.92 668.53a12.49 12.49 0 1 0-10.29-22.76z" stroke="#d3b714"></path><path d="M1081.56 695.11L1126.45 695.11L1126.45 740L1081.56 740z" stroke="#d3b714"></path><path d="M781.8 430.26a1.06 1.06 0 1 0-0.71-1.99z" stroke="#e73635"></path><path d="M1299.75 459.8L1316.64 459.8L1316.64 519.72L1299.75 519.72z" stroke="#e73635"></path><path d="M1163.62 232.28a71.5 71.5 0 1 0 10.09-142.64z" stroke="#e73635"></path><path d="M679.75 12.73L749.74 12.73L749.74 23.25L679.75 23.25z" fill="#e73635"></path><path d="M267.24 27.5 a49.73 49.73 0 1 0 99.46 0 a49.73 49.73 0 1 0 -99.46 0z" stroke="#037b0b"></path><path d="M1153.45 153.86L1183.59 153.86L1183.59 184L1153.45 184z" fill="#037b0b"></path><path d="M393.5 590.89L423.23 590.89L423.23 645.1L393.5 645.1z" fill="#e73635"></path><path d="M1058.52 168.55 a72.44 72.44 0 1 0 144.88 0 a72.44 72.44 0 1 0 -144.88 0z" fill="#e73635"></path><path d="M1179.41 271.79L1251.37 271.79L1251.37 343.75L1179.41 343.75z" stroke="#037b0b"></path></g><defs><mask id="SvgjsMask1032"><rect width="1400" height="780" fill="#ffffff"></rect></mask></defs></svg>