<svg xmlns="http://www.w3.org/2000/svg" version="1.1" xmlns:xlink="http://www.w3.org/1999/xlink" xmlns:svgjs="http://svgjs.com/svgjs" width="876" height="755" preserveAspectRatio="none" viewBox="0 0 876 755"><g mask="url(&quot;#SvgjsMask3294&quot;)" fill="none"><rect width="876" height="755" x="0" y="0" fill="url(#SvgjsLinearGradient3295)"></rect><path d="M-74.26 515.89L-74.26 515.89" stroke="#132e65" stroke-width="1.5"></path><path d="M-74.26 515.89L-38.02 593.75" stroke="#132e65" stroke-width="1.5"></path><path d="M-74.26 515.89L56.79 518.95" stroke="#132e65" stroke-width="1.5"></path><path d="M-74.26 515.89L70.61 612.97" stroke="#132e65" stroke-width="1.5"></path><path d="M-74.26 515.89L-57.18 725.87" stroke="#132e65" stroke-width="1.5"></path><path d="M-38.02 593.75L-38.02 593.75" stroke="#132e65" stroke-width="1.5"></path><path d="M-38.02 593.75L70.61 612.97" stroke="#132e65" stroke-width="1.5"></path><path d="M-38.02 593.75L56.79 518.95" stroke="#132e65" stroke-width="1.5"></path><path d="M-38.02 593.75L-57.18 725.87" stroke="#132e65" stroke-width="1.5"></path><path d="M-38.02 593.75L55.04 720.89" stroke="#132e65" stroke-width="1.5"></path><path d="M-38.02 593.75L137.3 596.34" stroke="#132e65" stroke-width="1.5"></path><path d="M-57.18 725.87L-57.18 725.87" stroke="#132e65" stroke-width="1.5"></path><path d="M-57.18 725.87L-34.57 795.53" stroke="#132e65" stroke-width="1.5"></path><path d="M-57.18 725.87L55.04 720.89" stroke="#132e65" stroke-width="1.5"></path><path d="M-34.57 795.53L-34.57 795.53" stroke="#132e65" stroke-width="1.5"></path><path d="M-34.57 795.53L72.17 818.42" stroke="#132e65" stroke-width="1.5"></path><path d="M-34.57 795.53L55.04 720.89" stroke="#132e65" stroke-width="1.5"></path><path d="M-34.57 795.53L149.52 807.95" stroke="#132e65" stroke-width="1.5"></path><path d="M-34.57 795.53L-38.02 593.75" stroke="#132e65" stroke-width="1.5"></path><path d="M-34.57 795.53L157.58 732.98" stroke="#132e65" stroke-width="1.5"></path><path d="M56.79 518.95L56.79 518.95" stroke="#132e65" stroke-width="1.5"></path><path d="M56.79 518.95L70.61 612.97" stroke="#132e65" stroke-width="1.5"></path><path d="M56.79 518.95L137.3 596.34" stroke="#132e65" stroke-width="1.5"></path><path d="M70.61 612.97L70.61 612.97" stroke="#132e65" stroke-width="1.5"></path><path d="M70.61 612.97L137.3 596.34" stroke="#132e65" stroke-width="1.5"></path><path d="M70.61 612.97L55.04 720.89" stroke="#132e65" stroke-width="1.5"></path><path d="M55.04 720.89L55.04 720.89" stroke="#132e65" stroke-width="1.5"></path><path d="M55.04 720.89L72.17 818.42" stroke="#132e65" stroke-width="1.5"></path><path d="M55.04 720.89L157.58 732.98" stroke="#132e65" stroke-width="1.5"></path><path d="M72.17 818.42L72.17 818.42" stroke="#132e65" stroke-width="1.5"></path><path d="M72.17 818.42L149.52 807.95" stroke="#132e65" stroke-width="1.5"></path><path d="M72.17 818.42L157.58 732.98" stroke="#132e65" stroke-width="1.5"></path><path d="M72.17 818.42L-57.18 725.87" stroke="#132e65" stroke-width="1.5"></path><path d="M72.17 818.42L259.74 824.58" stroke="#132e65" stroke-width="1.5"></path><path d="M137.3 596.34L137.3 596.34" stroke="#132e65" stroke-width="1.5"></path><path d="M137.3 596.34L157.58 732.98" stroke="#132e65" stroke-width="1.5"></path><path d="M137.3 596.34L55.04 720.89" stroke="#132e65" stroke-width="1.5"></path><path d="M157.58 732.98L157.58 732.98" stroke="#132e65" stroke-width="1.5"></path><path d="M157.58 732.98L149.52 807.95" stroke="#132e65" stroke-width="1.5"></path><path d="M157.58 732.98L246.63 710.75" stroke="#132e65" stroke-width="1.5"></path><path d="M149.52 807.95L149.52 807.95" stroke="#132e65" stroke-width="1.5"></path><path d="M149.52 807.95L259.74 824.58" stroke="#132e65" stroke-width="1.5"></path><path d="M149.52 807.95L55.04 720.89" stroke="#132e65" stroke-width="1.5"></path><path d="M292.41 410.34L292.41 410.34" stroke="#132e65" stroke-width="1.5"></path><path d="M292.41 410.34L356.27 376.35" stroke="#132e65" stroke-width="1.5"></path><path d="M292.41 410.34L290.57 510.23" stroke="#132e65" stroke-width="1.5"></path><path d="M292.41 410.34L372.64 491.16" stroke="#132e65" stroke-width="1.5"></path><path d="M290.57 510.23L290.57 510.23" stroke="#132e65" stroke-width="1.5"></path><path d="M290.57 510.23L372.64 491.16" stroke="#132e65" stroke-width="1.5"></path><path d="M290.57 510.23L408.14 591.15" stroke="#132e65" stroke-width="1.5"></path><path d="M246.63 710.75L246.63 710.75" stroke="#132e65" stroke-width="1.5"></path><path d="M259.74 824.58L259.74 824.58" stroke="#132e65" stroke-width="1.5"></path><path d="M259.74 824.58L357.44 814.98" stroke="#132e65" stroke-width="1.5"></path><path d="M259.74 824.58L246.63 710.75" stroke="#132e65" stroke-width="1.5"></path><path d="M259.74 824.58L157.58 732.98" stroke="#132e65" stroke-width="1.5"></path><path d="M356.27 376.35L356.27 376.35" stroke="#132e65" stroke-width="1.5"></path><path d="M356.27 376.35L372.64 491.16" stroke="#132e65" stroke-width="1.5"></path><path d="M372.64 491.16L372.64 491.16" stroke="#132e65" stroke-width="1.5"></path><path d="M372.64 491.16L408.14 591.15" stroke="#132e65" stroke-width="1.5"></path><path d="M372.64 491.16L504.13 516.66" stroke="#132e65" stroke-width="1.5"></path><path d="M408.14 591.15L408.14 591.15" stroke="#132e65" stroke-width="1.5"></path><path d="M408.14 591.15L504.14 598.66" stroke="#132e65" stroke-width="1.5"></path><path d="M408.14 591.15L504.13 516.66" stroke="#132e65" stroke-width="1.5"></path><path d="M408.14 591.15L364.94 713.25" stroke="#132e65" stroke-width="1.5"></path><path d="M364.94 713.25L364.94 713.25" stroke="#132e65" stroke-width="1.5"></path><path d="M364.94 713.25L357.44 814.98" stroke="#132e65" stroke-width="1.5"></path><path d="M364.94 713.25L246.63 710.75" stroke="#132e65" stroke-width="1.5"></path><path d="M357.44 814.98L357.44 814.98" stroke="#132e65" stroke-width="1.5"></path><path d="M357.44 814.98L246.63 710.75" stroke="#132e65" stroke-width="1.5"></path><path d="M357.44 814.98L520.11 831.82" stroke="#132e65" stroke-width="1.5"></path><path d="M473.16 262.79L473.16 262.79" stroke="#132e65" stroke-width="1.5"></path><path d="M473.16 262.79L509.88 391.62" stroke="#132e65" stroke-width="1.5"></path><path d="M473.16 262.79L624.02 267.55" stroke="#132e65" stroke-width="1.5"></path><path d="M509.88 391.62L509.88 391.62" stroke="#132e65" stroke-width="1.5"></path><path d="M509.88 391.62L591.82 369.92" stroke="#132e65" stroke-width="1.5"></path><path d="M509.88 391.62L504.13 516.66" stroke="#132e65" stroke-width="1.5"></path><path d="M504.13 516.66L504.13 516.66" stroke="#132e65" stroke-width="1.5"></path><path d="M504.13 516.66L504.14 598.66" stroke="#132e65" stroke-width="1.5"></path><path d="M504.13 516.66L585.76 492.94" stroke="#132e65" stroke-width="1.5"></path><path d="M504.13 516.66L591.82 369.92" stroke="#132e65" stroke-width="1.5"></path><path d="M504.14 598.66L504.14 598.66" stroke="#132e65" stroke-width="1.5"></path><path d="M504.14 598.66L519.79 730.24" stroke="#132e65" stroke-width="1.5"></path><path d="M504.14 598.66L580.04 707.63" stroke="#132e65" stroke-width="1.5"></path><path d="M504.14 598.66L585.76 492.94" stroke="#132e65" stroke-width="1.5"></path><path d="M504.14 598.66L372.64 491.16" stroke="#132e65" stroke-width="1.5"></path><path d="M519.79 730.24L519.79 730.24" stroke="#132e65" stroke-width="1.5"></path><path d="M519.79 730.24L580.04 707.63" stroke="#132e65" stroke-width="1.5"></path><path d="M519.79 730.24L520.11 831.82" stroke="#132e65" stroke-width="1.5"></path><path d="M519.79 730.24L603.92 809.57" stroke="#132e65" stroke-width="1.5"></path><path d="M520.11 831.82L520.11 831.82" stroke="#132e65" stroke-width="1.5"></path><path d="M520.11 831.82L603.92 809.57" stroke="#132e65" stroke-width="1.5"></path><path d="M520.11 831.82L580.04 707.63" stroke="#132e65" stroke-width="1.5"></path><path d="M520.11 831.82L364.94 713.25" stroke="#132e65" stroke-width="1.5"></path><path d="M615.77 -51.93L615.77 -51.93" stroke="#132e65" stroke-width="1.5"></path><path d="M615.77 -51.93L575.9 40.56" stroke="#132e65" stroke-width="1.5"></path><path d="M615.77 -51.93L726.18 -61.51" stroke="#132e65" stroke-width="1.5"></path><path d="M615.77 -51.93L731.6 43.88" stroke="#132e65" stroke-width="1.5"></path><path d="M615.77 -51.93L583.31 142.5" stroke="#132e65" stroke-width="1.5"></path><path d="M615.77 -51.93L834.7 -32.06" stroke="#132e65" stroke-width="1.5"></path><path d="M575.9 40.56L575.9 40.56" stroke="#132e65" stroke-width="1.5"></path><path d="M575.9 40.56L583.31 142.5" stroke="#132e65" stroke-width="1.5"></path><path d="M575.9 40.56L731.6 43.88" stroke="#132e65" stroke-width="1.5"></path><path d="M575.9 40.56L687.24 156.84" stroke="#132e65" stroke-width="1.5"></path><path d="M583.31 142.5L583.31 142.5" stroke="#132e65" stroke-width="1.5"></path><path d="M583.31 142.5L687.24 156.84" stroke="#132e65" stroke-width="1.5"></path><path d="M583.31 142.5L624.02 267.55" stroke="#132e65" stroke-width="1.5"></path><path d="M583.31 142.5L473.16 262.79" stroke="#132e65" stroke-width="1.5"></path><path d="M583.31 142.5L731.6 43.88" stroke="#132e65" stroke-width="1.5"></path><path d="M624.02 267.55L624.02 267.55" stroke="#132e65" stroke-width="1.5"></path><path d="M624.02 267.55L693.42 286.59" stroke="#132e65" stroke-width="1.5"></path><path d="M624.02 267.55L591.82 369.92" stroke="#132e65" stroke-width="1.5"></path><path d="M624.02 267.55L687.24 156.84" stroke="#132e65" stroke-width="1.5"></path><path d="M624.02 267.55L698.75 378.65" stroke="#132e65" stroke-width="1.5"></path><path d="M591.82 369.92L591.82 369.92" stroke="#132e65" stroke-width="1.5"></path><path d="M591.82 369.92L698.75 378.65" stroke="#132e65" stroke-width="1.5"></path><path d="M585.76 492.94L585.76 492.94" stroke="#132e65" stroke-width="1.5"></path><path d="M585.76 492.94L591.82 369.92" stroke="#132e65" stroke-width="1.5"></path><path d="M580.04 707.63L580.04 707.63" stroke="#132e65" stroke-width="1.5"></path><path d="M580.04 707.63L603.92 809.57" stroke="#132e65" stroke-width="1.5"></path><path d="M603.92 809.57L603.92 809.57" stroke="#132e65" stroke-width="1.5"></path><path d="M603.92 809.57L696.88 700.06" stroke="#132e65" stroke-width="1.5"></path><path d="M603.92 809.57L695.14 595.13" stroke="#132e65" stroke-width="1.5"></path><path d="M726.18 -61.51L726.18 -61.51" stroke="#132e65" stroke-width="1.5"></path><path d="M726.18 -61.51L731.6 43.88" stroke="#132e65" stroke-width="1.5"></path><path d="M726.18 -61.51L834.7 -32.06" stroke="#132e65" stroke-width="1.5"></path><path d="M726.18 -61.51L806.69 68.92" stroke="#132e65" stroke-width="1.5"></path><path d="M731.6 43.88L731.6 43.88" stroke="#132e65" stroke-width="1.5"></path><path d="M731.6 43.88L806.69 68.92" stroke="#132e65" stroke-width="1.5"></path><path d="M731.6 43.88L687.24 156.84" stroke="#132e65" stroke-width="1.5"></path><path d="M687.24 156.84L687.24 156.84" stroke="#132e65" stroke-width="1.5"></path><path d="M687.24 156.84L693.42 286.59" stroke="#132e65" stroke-width="1.5"></path><path d="M687.24 156.84L817.14 179.69" stroke="#132e65" stroke-width="1.5"></path><path d="M687.24 156.84L799.19 249.41" stroke="#132e65" stroke-width="1.5"></path><path d="M693.42 286.59L693.42 286.59" stroke="#132e65" stroke-width="1.5"></path><path d="M693.42 286.59L698.75 378.65" stroke="#132e65" stroke-width="1.5"></path><path d="M693.42 286.59L799.19 249.41" stroke="#132e65" stroke-width="1.5"></path><path d="M698.75 378.65L698.75 378.65" stroke="#132e65" stroke-width="1.5"></path><path d="M698.75 378.65L738.2 470.73" stroke="#132e65" stroke-width="1.5"></path><path d="M698.75 378.65L815.96 394.17" stroke="#132e65" stroke-width="1.5"></path><path d="M738.2 470.73L738.2 470.73" stroke="#132e65" stroke-width="1.5"></path><path d="M738.2 470.73L817.07 513.85" stroke="#132e65" stroke-width="1.5"></path><path d="M695.14 595.13L695.14 595.13" stroke="#132e65" stroke-width="1.5"></path><path d="M695.14 595.13L696.88 700.06" stroke="#132e65" stroke-width="1.5"></path><path d="M695.14 595.13L738.2 470.73" stroke="#132e65" stroke-width="1.5"></path><path d="M695.14 595.13L840.39 603.64" stroke="#132e65" stroke-width="1.5"></path><path d="M696.88 700.06L696.88 700.06" stroke="#132e65" stroke-width="1.5"></path><path d="M696.88 700.06L580.04 707.63" stroke="#132e65" stroke-width="1.5"></path><path d="M696.88 700.06L840.39 603.64" stroke="#132e65" stroke-width="1.5"></path><path d="M834.7 -32.06L834.7 -32.06" stroke="#132e65" stroke-width="1.5"></path><path d="M834.7 -32.06L903.38 -56.69" stroke="#132e65" stroke-width="1.5"></path><path d="M834.7 -32.06L806.69 68.92" stroke="#132e65" stroke-width="1.5"></path><path d="M806.69 68.92L806.69 68.92" stroke="#132e65" stroke-width="1.5"></path><path d="M806.69 68.92L817.14 179.69" stroke="#132e65" stroke-width="1.5"></path><path d="M806.69 68.92L950.47 78.32" stroke="#132e65" stroke-width="1.5"></path><path d="M806.69 68.92L687.24 156.84" stroke="#132e65" stroke-width="1.5"></path><path d="M817.14 179.69L817.14 179.69" stroke="#132e65" stroke-width="1.5"></path><path d="M817.14 179.69L799.19 249.41" stroke="#132e65" stroke-width="1.5"></path><path d="M817.14 179.69L934.53 169.58" stroke="#132e65" stroke-width="1.5"></path><path d="M817.14 179.69L952.84 248.43" stroke="#132e65" stroke-width="1.5"></path><path d="M817.14 179.69L731.6 43.88" stroke="#132e65" stroke-width="1.5"></path><path d="M799.19 249.41L799.19 249.41" stroke="#132e65" stroke-width="1.5"></path><path d="M799.19 249.41L815.96 394.17" stroke="#132e65" stroke-width="1.5"></path><path d="M799.19 249.41L952.84 248.43" stroke="#132e65" stroke-width="1.5"></path><path d="M799.19 249.41L934.53 169.58" stroke="#132e65" stroke-width="1.5"></path><path d="M815.96 394.17L815.96 394.17" stroke="#132e65" stroke-width="1.5"></path><path d="M815.96 394.17L738.2 470.73" stroke="#132e65" stroke-width="1.5"></path><path d="M815.96 394.17L926.49 400.93" stroke="#132e65" stroke-width="1.5"></path><path d="M815.96 394.17L817.07 513.85" stroke="#132e65" stroke-width="1.5"></path><path d="M815.96 394.17L934.02 477.84" stroke="#132e65" stroke-width="1.5"></path><path d="M817.07 513.85L817.07 513.85" stroke="#132e65" stroke-width="1.5"></path><path d="M817.07 513.85L840.39 603.64" stroke="#132e65" stroke-width="1.5"></path><path d="M817.07 513.85L934.02 477.84" stroke="#132e65" stroke-width="1.5"></path><path d="M840.39 603.64L840.39 603.64" stroke="#132e65" stroke-width="1.5"></path><path d="M840.39 603.64L914.45 689.49" stroke="#132e65" stroke-width="1.5"></path><path d="M903.38 -56.69L903.38 -56.69" stroke="#132e65" stroke-width="1.5"></path><path d="M950.47 78.32L950.47 78.32" stroke="#132e65" stroke-width="1.5"></path><path d="M950.47 78.32L934.53 169.58" stroke="#132e65" stroke-width="1.5"></path><path d="M950.47 78.32L903.38 -56.69" stroke="#132e65" stroke-width="1.5"></path><path d="M950.47 78.32L834.7 -32.06" stroke="#132e65" stroke-width="1.5"></path><path d="M950.47 78.32L817.14 179.69" stroke="#132e65" stroke-width="1.5"></path><path d="M934.53 169.58L934.53 169.58" stroke="#132e65" stroke-width="1.5"></path><path d="M934.53 169.58L952.84 248.43" stroke="#132e65" stroke-width="1.5"></path><path d="M952.84 248.43L952.84 248.43" stroke="#132e65" stroke-width="1.5"></path><path d="M926.49 400.93L926.49 400.93" stroke="#132e65" stroke-width="1.5"></path><path d="M926.49 400.93L934.02 477.84" stroke="#132e65" stroke-width="1.5"></path><path d="M926.49 400.93L952.84 248.43" stroke="#132e65" stroke-width="1.5"></path><path d="M926.49 400.93L817.07 513.85" stroke="#132e65" stroke-width="1.5"></path><path d="M926.49 400.93L799.19 249.41" stroke="#132e65" stroke-width="1.5"></path><path d="M934.02 477.84L934.02 477.84" stroke="#132e65" stroke-width="1.5"></path><path d="M934.02 477.84L840.39 603.64" stroke="#132e65" stroke-width="1.5"></path><path d="M914.45 689.49L914.45 689.49" stroke="#132e65" stroke-width="1.5"></path><path d="M914.45 689.49L948.96 822.15" stroke="#132e65" stroke-width="1.5"></path><path d="M948.96 822.15L948.96 822.15" stroke="#132e65" stroke-width="1.5"></path><path d="M948.96 822.15L840.39 603.64" stroke="#132e65" stroke-width="1.5"></path><path d="M948.96 822.15L696.88 700.06" stroke="#132e65" stroke-width="1.5"></path><path d="M948.96 822.15L817.07 513.85" stroke="#132e65" stroke-width="1.5"></path><path d="M948.96 822.15L695.14 595.13" stroke="#132e65" stroke-width="1.5"></path><circle r="5" cx="-74.26" cy="515.89" fill="#132e65"></circle><circle r="5" cx="-38.02" cy="593.75" fill="#132e65"></circle><circle r="5" cx="-57.18" cy="725.87" fill="#132e65"></circle><circle r="5" cx="-34.57" cy="795.53" fill="#132e65"></circle><circle r="5" cx="56.79" cy="518.95" fill="#132e65"></circle><circle r="5" cx="70.61" cy="612.97" fill="#132e65"></circle><circle r="5" cx="55.04" cy="720.89" fill="#132e65"></circle><circle r="5" cx="72.17" cy="818.42" fill="#132e65"></circle><circle r="5" cx="137.3" cy="596.34" fill="#132e65"></circle><circle r="5" cx="157.58" cy="732.98" fill="#132e65"></circle><circle r="5" cx="149.52" cy="807.95" fill="#132e65"></circle><circle r="5" cx="292.41" cy="410.34" fill="#132e65"></circle><circle r="5" cx="290.57" cy="510.23" fill="#132e65"></circle><circle r="5" cx="246.63" cy="710.75" fill="#132e65"></circle><circle r="5" cx="259.74" cy="824.58" fill="#132e65"></circle><circle r="5" cx="356.27" cy="376.35" fill="#132e65"></circle><circle r="5" cx="372.64" cy="491.16" fill="#132e65"></circle><circle r="5" cx="408.14" cy="591.15" fill="#132e65"></circle><circle r="5" cx="364.94" cy="713.25" fill="#132e65"></circle><circle r="5" cx="357.44" cy="814.98" fill="#132e65"></circle><circle r="5" cx="473.16" cy="262.79" fill="#132e65"></circle><circle r="5" cx="509.88" cy="391.62" fill="#132e65"></circle><circle r="5" cx="504.13" cy="516.66" fill="#132e65"></circle><circle r="5" cx="504.14" cy="598.66" fill="#132e65"></circle><circle r="5" cx="519.79" cy="730.24" fill="#132e65"></circle><circle r="5" cx="520.11" cy="831.82" fill="#132e65"></circle><circle r="5" cx="615.77" cy="-51.93" fill="#132e65"></circle><circle r="5" cx="575.9" cy="40.56" fill="#132e65"></circle><circle r="5" cx="583.31" cy="142.5" fill="#132e65"></circle><circle r="5" cx="624.02" cy="267.55" fill="#132e65"></circle><circle r="5" cx="591.82" cy="369.92" fill="#132e65"></circle><circle r="5" cx="585.76" cy="492.94" fill="#132e65"></circle><circle r="5" cx="580.04" cy="707.63" fill="#132e65"></circle><circle r="5" cx="603.92" cy="809.57" fill="#132e65"></circle><circle r="5" cx="726.18" cy="-61.51" fill="#132e65"></circle><circle r="5" cx="731.6" cy="43.88" fill="#132e65"></circle><circle r="5" cx="687.24" cy="156.84" fill="#132e65"></circle><circle r="5" cx="693.42" cy="286.59" fill="#132e65"></circle><circle r="5" cx="698.75" cy="378.65" fill="#132e65"></circle><circle r="5" cx="738.2" cy="470.73" fill="#132e65"></circle><circle r="5" cx="695.14" cy="595.13" fill="#132e65"></circle><circle r="5" cx="696.88" cy="700.06" fill="#132e65"></circle><circle r="5" cx="834.7" cy="-32.06" fill="#132e65"></circle><circle r="5" cx="806.69" cy="68.92" fill="#132e65"></circle><circle r="5" cx="817.14" cy="179.69" fill="#132e65"></circle><circle r="5" cx="799.19" cy="249.41" fill="#132e65"></circle><circle r="5" cx="815.96" cy="394.17" fill="#132e65"></circle><circle r="5" cx="817.07" cy="513.85" fill="#132e65"></circle><circle r="5" cx="840.39" cy="603.64" fill="#132e65"></circle><circle r="5" cx="903.38" cy="-56.69" fill="#132e65"></circle><circle r="5" cx="950.47" cy="78.32" fill="#132e65"></circle><circle r="5" cx="934.53" cy="169.58" fill="#132e65"></circle><circle r="5" cx="952.84" cy="248.43" fill="#132e65"></circle><circle r="5" cx="926.49" cy="400.93" fill="#132e65"></circle><circle r="5" cx="934.02" cy="477.84" fill="#132e65"></circle><circle r="5" cx="914.45" cy="689.49" fill="#132e65"></circle><circle r="5" cx="948.96" cy="822.15" fill="#132e65"></circle><path d="M64.42 695.58L64.42 695.58" stroke="hsl(228.5, 77.2%, 51.5%)" stroke-width="1.5"></path><path d="M64.42 695.58L29.81 619.9" stroke="hsl(228.5, 77.2%, 51.5%)" stroke-width="1.5"></path><path d="M64.42 695.58L146.5 735.08" stroke="hsl(228.5, 77.2%, 51.5%)" stroke-width="1.5"></path><path d="M64.42 695.58L144.36 626.77" stroke="hsl(228.5, 77.2%, 51.5%)" stroke-width="1.5"></path><path d="M64.42 695.58L78.62 812.43" stroke="hsl(228.5, 77.2%, 51.5%)" stroke-width="1.5"></path><path d="M64.42 695.58L-54.84 693.66" stroke="hsl(228.5, 77.2%, 51.5%)" stroke-width="1.5"></path><path d="M78.62 812.43L78.62 812.43" stroke="hsl(228.5, 77.2%, 51.5%)" stroke-width="1.5"></path><path d="M78.62 812.43L151.35 833.31" stroke="hsl(228.5, 77.2%, 51.5%)" stroke-width="1.5"></path><path d="M78.62 812.43L146.5 735.08" stroke="hsl(228.5, 77.2%, 51.5%)" stroke-width="1.5"></path><path d="M78.62 812.43L-57.49 800.17" stroke="hsl(228.5, 77.2%, 51.5%)" stroke-width="1.5"></path><path d="M144.36 626.77L144.36 626.77" stroke="hsl(228.5, 77.2%, 51.5%)" stroke-width="1.5"></path><path d="M144.36 626.77L146.5 735.08" stroke="hsl(228.5, 77.2%, 51.5%)" stroke-width="1.5"></path><path d="M144.36 626.77L29.81 619.9" stroke="hsl(228.5, 77.2%, 51.5%)" stroke-width="1.5"></path><path d="M144.36 626.77L279.25 579.24" stroke="hsl(228.5, 77.2%, 51.5%)" stroke-width="1.5"></path><path d="M144.36 626.77L289.33 695.3" stroke="hsl(228.5, 77.2%, 51.5%)" stroke-width="1.5"></path><path d="M399 692.18L399 692.18" stroke="hsl(228.5, 77.2%, 51.5%)" stroke-width="1.5"></path><path d="M399 692.18L485.71 729.22" stroke="hsl(228.5, 77.2%, 51.5%)" stroke-width="1.5"></path><path d="M399 692.18L289.33 695.3" stroke="hsl(228.5, 77.2%, 51.5%)" stroke-width="1.5"></path><path d="M399 692.18L375.55 583.33" stroke="hsl(228.5, 77.2%, 51.5%)" stroke-width="1.5"></path><path d="M499.78 476.97L499.78 476.97" stroke="hsl(228.5, 77.2%, 51.5%)" stroke-width="1.5"></path><path d="M499.78 476.97L598.61 481.86" stroke="hsl(228.5, 77.2%, 51.5%)" stroke-width="1.5"></path><path d="M499.78 476.97L385.65 516.9" stroke="hsl(228.5, 77.2%, 51.5%)" stroke-width="1.5"></path><path d="M499.78 476.97L508.25 619.1" stroke="hsl(228.5, 77.2%, 51.5%)" stroke-width="1.5"></path><path d="M508.25 619.1L508.25 619.1" stroke="hsl(228.5, 77.2%, 51.5%)" stroke-width="1.5"></path><path d="M508.25 619.1L485.71 729.22" stroke="hsl(228.5, 77.2%, 51.5%)" stroke-width="1.5"></path><path d="M508.25 619.1L602.01 689.41" stroke="hsl(228.5, 77.2%, 51.5%)" stroke-width="1.5"></path><path d="M727.66 712.68L727.66 712.68" stroke="hsl(228.5, 77.2%, 51.5%)" stroke-width="1.5"></path><path d="M727.66 712.68L809.82 690.46" stroke="hsl(228.5, 77.2%, 51.5%)" stroke-width="1.5"></path><path d="M727.66 712.68L716.17 821.89" stroke="hsl(228.5, 77.2%, 51.5%)" stroke-width="1.5"></path><path d="M727.66 712.68L602.01 689.41" stroke="hsl(228.5, 77.2%, 51.5%)" stroke-width="1.5"></path><path d="M727.66 712.68L690.78 586.52" stroke="hsl(228.5, 77.2%, 51.5%)" stroke-width="1.5"></path><path d="M727.66 712.68L824.04 827.52" stroke="hsl(228.5, 77.2%, 51.5%)" stroke-width="1.5"></path><path d="M716.17 821.89L716.17 821.89" stroke="hsl(228.5, 77.2%, 51.5%)" stroke-width="1.5"></path><path d="M716.17 821.89L824.04 827.52" stroke="hsl(228.5, 77.2%, 51.5%)" stroke-width="1.5"></path><path d="M716.17 821.89L583.34 847.35" stroke="hsl(228.5, 77.2%, 51.5%)" stroke-width="1.5"></path><path d="M716.17 821.89L809.82 690.46" stroke="hsl(228.5, 77.2%, 51.5%)" stroke-width="1.5"></path><path d="M819.67 401.41L819.67 401.41" stroke="hsl(228.5, 77.2%, 51.5%)" stroke-width="1.5"></path><path d="M819.67 401.41L907.72 385.02" stroke="hsl(228.5, 77.2%, 51.5%)" stroke-width="1.5"></path><path d="M819.67 401.41L806.27 511.65" stroke="hsl(228.5, 77.2%, 51.5%)" stroke-width="1.5"></path><path d="M822.68 594.16L822.68 594.16" stroke="hsl(228.5, 77.2%, 51.5%)" stroke-width="1.5"></path><path d="M822.68 594.16L806.27 511.65" stroke="hsl(228.5, 77.2%, 51.5%)" stroke-width="1.5"></path><path d="M822.68 594.16L809.82 690.46" stroke="hsl(228.5, 77.2%, 51.5%)" stroke-width="1.5"></path><path d="M822.68 594.16L908.34 496.66" stroke="hsl(228.5, 77.2%, 51.5%)" stroke-width="1.5"></path><path d="M822.68 594.16L953.8 578.46" stroke="hsl(228.5, 77.2%, 51.5%)" stroke-width="1.5"></path><path d="M824.04 827.52L824.04 827.52" stroke="hsl(228.5, 77.2%, 51.5%)" stroke-width="1.5"></path><path d="M824.04 827.52L928.61 796.47" stroke="hsl(228.5, 77.2%, 51.5%)" stroke-width="1.5"></path><path d="M824.04 827.52L809.82 690.46" stroke="hsl(228.5, 77.2%, 51.5%)" stroke-width="1.5"></path><path d="M824.04 827.52L928.09 724" stroke="hsl(228.5, 77.2%, 51.5%)" stroke-width="1.5"></path><path d="M924.03 -30.18L924.03 -30.18" stroke="hsl(228.5, 77.2%, 51.5%)" stroke-width="1.5"></path><path d="M924.03 -30.18L945.61 51.73" stroke="hsl(228.5, 77.2%, 51.5%)" stroke-width="1.5"></path><path d="M924.03 -30.18L845.72 38.67" stroke="hsl(228.5, 77.2%, 51.5%)" stroke-width="1.5"></path><path d="M924.03 -30.18L813.52 -70.43" stroke="hsl(228.5, 77.2%, 51.5%)" stroke-width="1.5"></path><path d="M924.03 -30.18L804.89 180.4" stroke="hsl(228.5, 77.2%, 51.5%)" stroke-width="1.5"></path><path d="M945.61 51.73L945.61 51.73" stroke="hsl(228.5, 77.2%, 51.5%)" stroke-width="1.5"></path><path d="M945.61 51.73L845.72 38.67" stroke="hsl(228.5, 77.2%, 51.5%)" stroke-width="1.5"></path><path d="M945.61 51.73L813.52 -70.43" stroke="hsl(228.5, 77.2%, 51.5%)" stroke-width="1.5"></path><path d="M945.61 51.73L804.89 180.4" stroke="hsl(228.5, 77.2%, 51.5%)" stroke-width="1.5"></path><path d="M945.61 51.73L910.62 253.52" stroke="hsl(228.5, 77.2%, 51.5%)" stroke-width="1.5"></path><path d="M907.72 385.02L907.72 385.02" stroke="hsl(228.5, 77.2%, 51.5%)" stroke-width="1.5"></path><path d="M907.72 385.02L908.34 496.66" stroke="hsl(228.5, 77.2%, 51.5%)" stroke-width="1.5"></path><path d="M907.72 385.02L910.62 253.52" stroke="hsl(228.5, 77.2%, 51.5%)" stroke-width="1.5"></path><path d="M-27.45 608.32L-27.45 608.32" stroke="hsl(228.5, 77.2%, 51.5%)" stroke-width="1.5"></path><path d="M-27.45 608.32L29.81 619.9" stroke="hsl(228.5, 77.2%, 51.5%)" stroke-width="1.5"></path><path d="M-27.45 608.32L-54.84 693.66" stroke="hsl(228.5, 77.2%, 51.5%)" stroke-width="1.5"></path><path d="M-27.45 608.32L64.42 695.58" stroke="hsl(228.5, 77.2%, 51.5%)" stroke-width="1.5"></path><path d="M-27.45 608.32L144.36 626.77" stroke="hsl(228.5, 77.2%, 51.5%)" stroke-width="1.5"></path><path d="M-27.45 608.32L-57.49 800.17" stroke="hsl(228.5, 77.2%, 51.5%)" stroke-width="1.5"></path><path d="M-54.84 693.66L-54.84 693.66" stroke="hsl(228.5, 77.2%, 51.5%)" stroke-width="1.5"></path><path d="M-54.84 693.66L-57.49 800.17" stroke="hsl(228.5, 77.2%, 51.5%)" stroke-width="1.5"></path><path d="M-54.84 693.66L29.81 619.9" stroke="hsl(228.5, 77.2%, 51.5%)" stroke-width="1.5"></path><path d="M-54.84 693.66L78.62 812.43" stroke="hsl(228.5, 77.2%, 51.5%)" stroke-width="1.5"></path><path d="M-57.49 800.17L-57.49 800.17" stroke="hsl(228.5, 77.2%, 51.5%)" stroke-width="1.5"></path><path d="M-57.49 800.17L64.42 695.58" stroke="hsl(228.5, 77.2%, 51.5%)" stroke-width="1.5"></path><path d="M29.81 619.9L29.81 619.9" stroke="hsl(228.5, 77.2%, 51.5%)" stroke-width="1.5"></path><path d="M146.5 735.08L146.5 735.08" stroke="hsl(228.5, 77.2%, 51.5%)" stroke-width="1.5"></path><path d="M146.5 735.08L151.35 833.31" stroke="hsl(228.5, 77.2%, 51.5%)" stroke-width="1.5"></path><path d="M151.35 833.31L151.35 833.31" stroke="hsl(228.5, 77.2%, 51.5%)" stroke-width="1.5"></path><path d="M151.35 833.31L284.07 793.89" stroke="hsl(228.5, 77.2%, 51.5%)" stroke-width="1.5"></path><path d="M279.25 579.24L279.25 579.24" stroke="hsl(228.5, 77.2%, 51.5%)" stroke-width="1.5"></path><path d="M279.25 579.24L375.55 583.33" stroke="hsl(228.5, 77.2%, 51.5%)" stroke-width="1.5"></path><path d="M279.25 579.24L289.33 695.3" stroke="hsl(228.5, 77.2%, 51.5%)" stroke-width="1.5"></path><path d="M289.33 695.3L289.33 695.3" stroke="hsl(228.5, 77.2%, 51.5%)" stroke-width="1.5"></path><path d="M289.33 695.3L284.07 793.89" stroke="hsl(228.5, 77.2%, 51.5%)" stroke-width="1.5"></path><path d="M289.33 695.3L375.55 583.33" stroke="hsl(228.5, 77.2%, 51.5%)" stroke-width="1.5"></path><path d="M289.33 695.3L146.5 735.08" stroke="hsl(228.5, 77.2%, 51.5%)" stroke-width="1.5"></path><path d="M284.07 793.89L284.07 793.89" stroke="hsl(228.5, 77.2%, 51.5%)" stroke-width="1.5"></path><path d="M284.07 793.89L375.75 837.62" stroke="hsl(228.5, 77.2%, 51.5%)" stroke-width="1.5"></path><path d="M284.07 793.89L146.5 735.08" stroke="hsl(228.5, 77.2%, 51.5%)" stroke-width="1.5"></path><path d="M284.07 793.89L399 692.18" stroke="hsl(228.5, 77.2%, 51.5%)" stroke-width="1.5"></path><path d="M284.07 793.89L78.62 812.43" stroke="hsl(228.5, 77.2%, 51.5%)" stroke-width="1.5"></path><path d="M385.65 516.9L385.65 516.9" stroke="hsl(228.5, 77.2%, 51.5%)" stroke-width="1.5"></path><path d="M385.65 516.9L375.55 583.33" stroke="hsl(228.5, 77.2%, 51.5%)" stroke-width="1.5"></path><path d="M385.65 516.9L279.25 579.24" stroke="hsl(228.5, 77.2%, 51.5%)" stroke-width="1.5"></path><path d="M375.55 583.33L375.55 583.33" stroke="hsl(228.5, 77.2%, 51.5%)" stroke-width="1.5"></path><path d="M375.55 583.33L508.25 619.1" stroke="hsl(228.5, 77.2%, 51.5%)" stroke-width="1.5"></path><path d="M375.55 583.33L499.78 476.97" stroke="hsl(228.5, 77.2%, 51.5%)" stroke-width="1.5"></path><path d="M375.75 837.62L375.75 837.62" stroke="hsl(228.5, 77.2%, 51.5%)" stroke-width="1.5"></path><path d="M485.71 729.22L485.71 729.22" stroke="hsl(228.5, 77.2%, 51.5%)" stroke-width="1.5"></path><path d="M485.71 729.22L505.28 812.63" stroke="hsl(228.5, 77.2%, 51.5%)" stroke-width="1.5"></path><path d="M505.28 812.63L505.28 812.63" stroke="hsl(228.5, 77.2%, 51.5%)" stroke-width="1.5"></path><path d="M505.28 812.63L583.34 847.35" stroke="hsl(228.5, 77.2%, 51.5%)" stroke-width="1.5"></path><path d="M505.28 812.63L375.75 837.62" stroke="hsl(228.5, 77.2%, 51.5%)" stroke-width="1.5"></path><path d="M614.48 364.83L614.48 364.83" stroke="hsl(228.5, 77.2%, 51.5%)" stroke-width="1.5"></path><path d="M614.48 364.83L690.72 395.49" stroke="hsl(228.5, 77.2%, 51.5%)" stroke-width="1.5"></path><path d="M614.48 364.83L598.61 481.86" stroke="hsl(228.5, 77.2%, 51.5%)" stroke-width="1.5"></path><path d="M614.48 364.83L703.79 283.57" stroke="hsl(228.5, 77.2%, 51.5%)" stroke-width="1.5"></path><path d="M614.48 364.83L711.06 470.62" stroke="hsl(228.5, 77.2%, 51.5%)" stroke-width="1.5"></path><path d="M614.48 364.83L499.78 476.97" stroke="hsl(228.5, 77.2%, 51.5%)" stroke-width="1.5"></path><path d="M614.48 364.83L699.35 184.01" stroke="hsl(228.5, 77.2%, 51.5%)" stroke-width="1.5"></path><path d="M598.61 481.86L598.61 481.86" stroke="hsl(228.5, 77.2%, 51.5%)" stroke-width="1.5"></path><path d="M598.61 481.86L711.06 470.62" stroke="hsl(228.5, 77.2%, 51.5%)" stroke-width="1.5"></path><path d="M598.61 481.86L690.72 395.49" stroke="hsl(228.5, 77.2%, 51.5%)" stroke-width="1.5"></path><path d="M598.61 481.86L690.78 586.52" stroke="hsl(228.5, 77.2%, 51.5%)" stroke-width="1.5"></path><path d="M602.01 689.41L602.01 689.41" stroke="hsl(228.5, 77.2%, 51.5%)" stroke-width="1.5"></path><path d="M602.01 689.41L485.71 729.22" stroke="hsl(228.5, 77.2%, 51.5%)" stroke-width="1.5"></path><path d="M583.34 847.35L583.34 847.35" stroke="hsl(228.5, 77.2%, 51.5%)" stroke-width="1.5"></path><path d="M699.35 184.01L699.35 184.01" stroke="hsl(228.5, 77.2%, 51.5%)" stroke-width="1.5"></path><path d="M699.35 184.01L703.79 283.57" stroke="hsl(228.5, 77.2%, 51.5%)" stroke-width="1.5"></path><path d="M699.35 184.01L804.89 180.4" stroke="hsl(228.5, 77.2%, 51.5%)" stroke-width="1.5"></path><path d="M699.35 184.01L807.27 255.02" stroke="hsl(228.5, 77.2%, 51.5%)" stroke-width="1.5"></path><path d="M703.79 283.57L703.79 283.57" stroke="hsl(228.5, 77.2%, 51.5%)" stroke-width="1.5"></path><path d="M703.79 283.57L807.27 255.02" stroke="hsl(228.5, 77.2%, 51.5%)" stroke-width="1.5"></path><path d="M690.72 395.49L690.72 395.49" stroke="hsl(228.5, 77.2%, 51.5%)" stroke-width="1.5"></path><path d="M690.72 395.49L711.06 470.62" stroke="hsl(228.5, 77.2%, 51.5%)" stroke-width="1.5"></path><path d="M690.72 395.49L703.79 283.57" stroke="hsl(228.5, 77.2%, 51.5%)" stroke-width="1.5"></path><path d="M690.72 395.49L819.67 401.41" stroke="hsl(228.5, 77.2%, 51.5%)" stroke-width="1.5"></path><path d="M690.72 395.49L806.27 511.65" stroke="hsl(228.5, 77.2%, 51.5%)" stroke-width="1.5"></path><path d="M711.06 470.62L711.06 470.62" stroke="hsl(228.5, 77.2%, 51.5%)" stroke-width="1.5"></path><path d="M711.06 470.62L806.27 511.65" stroke="hsl(228.5, 77.2%, 51.5%)" stroke-width="1.5"></path><path d="M711.06 470.62L690.78 586.52" stroke="hsl(228.5, 77.2%, 51.5%)" stroke-width="1.5"></path><path d="M690.78 586.52L690.78 586.52" stroke="hsl(228.5, 77.2%, 51.5%)" stroke-width="1.5"></path><path d="M690.78 586.52L822.68 594.16" stroke="hsl(228.5, 77.2%, 51.5%)" stroke-width="1.5"></path><path d="M690.78 586.52L602.01 689.41" stroke="hsl(228.5, 77.2%, 51.5%)" stroke-width="1.5"></path><path d="M813.52 -70.43L813.52 -70.43" stroke="hsl(228.5, 77.2%, 51.5%)" stroke-width="1.5"></path><path d="M813.52 -70.43L845.72 38.67" stroke="hsl(228.5, 77.2%, 51.5%)" stroke-width="1.5"></path><path d="M813.52 -70.43L804.89 180.4" stroke="hsl(228.5, 77.2%, 51.5%)" stroke-width="1.5"></path><path d="M813.52 -70.43L699.35 184.01" stroke="hsl(228.5, 77.2%, 51.5%)" stroke-width="1.5"></path><path d="M813.52 -70.43L807.27 255.02" stroke="hsl(228.5, 77.2%, 51.5%)" stroke-width="1.5"></path><path d="M845.72 38.67L845.72 38.67" stroke="hsl(228.5, 77.2%, 51.5%)" stroke-width="1.5"></path><path d="M845.72 38.67L804.89 180.4" stroke="hsl(228.5, 77.2%, 51.5%)" stroke-width="1.5"></path><path d="M845.72 38.67L699.35 184.01" stroke="hsl(228.5, 77.2%, 51.5%)" stroke-width="1.5"></path><path d="M804.89 180.4L804.89 180.4" stroke="hsl(228.5, 77.2%, 51.5%)" stroke-width="1.5"></path><path d="M804.89 180.4L807.27 255.02" stroke="hsl(228.5, 77.2%, 51.5%)" stroke-width="1.5"></path><path d="M807.27 255.02L807.27 255.02" stroke="hsl(228.5, 77.2%, 51.5%)" stroke-width="1.5"></path><path d="M807.27 255.02L910.62 253.52" stroke="hsl(228.5, 77.2%, 51.5%)" stroke-width="1.5"></path><path d="M806.27 511.65L806.27 511.65" stroke="hsl(228.5, 77.2%, 51.5%)" stroke-width="1.5"></path><path d="M806.27 511.65L908.34 496.66" stroke="hsl(228.5, 77.2%, 51.5%)" stroke-width="1.5"></path><path d="M809.82 690.46L809.82 690.46" stroke="hsl(228.5, 77.2%, 51.5%)" stroke-width="1.5"></path><path d="M809.82 690.46L928.09 724" stroke="hsl(228.5, 77.2%, 51.5%)" stroke-width="1.5"></path><path d="M809.82 690.46L690.78 586.52" stroke="hsl(228.5, 77.2%, 51.5%)" stroke-width="1.5"></path><path d="M910.62 253.52L910.62 253.52" stroke="hsl(228.5, 77.2%, 51.5%)" stroke-width="1.5"></path><path d="M910.62 253.52L804.89 180.4" stroke="hsl(228.5, 77.2%, 51.5%)" stroke-width="1.5"></path><path d="M908.34 496.66L908.34 496.66" stroke="hsl(228.5, 77.2%, 51.5%)" stroke-width="1.5"></path><path d="M908.34 496.66L953.8 578.46" stroke="hsl(228.5, 77.2%, 51.5%)" stroke-width="1.5"></path><path d="M953.8 578.46L953.8 578.46" stroke="hsl(228.5, 77.2%, 51.5%)" stroke-width="1.5"></path><path d="M953.8 578.46L928.09 724" stroke="hsl(228.5, 77.2%, 51.5%)" stroke-width="1.5"></path><path d="M928.09 724L928.09 724" stroke="hsl(228.5, 77.2%, 51.5%)" stroke-width="1.5"></path><path d="M928.09 724L928.61 796.47" stroke="hsl(228.5, 77.2%, 51.5%)" stroke-width="1.5"></path><path d="M928.61 796.47L928.61 796.47" stroke="hsl(228.5, 77.2%, 51.5%)" stroke-width="1.5"></path><path d="M928.61 796.47L809.82 690.46" stroke="hsl(228.5, 77.2%, 51.5%)" stroke-width="1.5"></path><circle r="25" cx="64.42" cy="695.58" fill="url(#SvgjsRadialGradient3296)"></circle><circle r="25" cx="78.62" cy="812.43" fill="url(#SvgjsRadialGradient3296)"></circle><circle r="25" cx="144.36" cy="626.77" fill="url(#SvgjsRadialGradient3296)"></circle><circle r="25" cx="399" cy="692.18" fill="url(#SvgjsRadialGradient3296)"></circle><circle r="25" cx="499.78" cy="476.97" fill="url(#SvgjsRadialGradient3296)"></circle><circle r="25" cx="508.25" cy="619.1" fill="url(#SvgjsRadialGradient3296)"></circle><circle r="25" cx="727.66" cy="712.68" fill="url(#SvgjsRadialGradient3296)"></circle><circle r="25" cx="716.17" cy="821.89" fill="url(#SvgjsRadialGradient3296)"></circle><circle r="25" cx="819.67" cy="401.41" fill="url(#SvgjsRadialGradient3296)"></circle><circle r="25" cx="822.68" cy="594.16" fill="url(#SvgjsRadialGradient3296)"></circle><circle r="25" cx="824.04" cy="827.52" fill="url(#SvgjsRadialGradient3296)"></circle><circle r="25" cx="924.03" cy="-30.18" fill="url(#SvgjsRadialGradient3296)"></circle><circle r="25" cx="945.61" cy="51.73" fill="url(#SvgjsRadialGradient3296)"></circle><circle r="25" cx="907.72" cy="385.02" fill="url(#SvgjsRadialGradient3296)"></circle><circle r="5" cx="-27.45" cy="608.32" fill="#8b9ad9"></circle><circle r="5" cx="-54.84" cy="693.66" fill="#8b9ad9"></circle><circle r="5" cx="-57.49" cy="800.17" fill="#8b9ad9"></circle><circle r="5" cx="29.81" cy="619.9" fill="#8b9ad9"></circle><circle r="5" cx="146.5" cy="735.08" fill="#8b9ad9"></circle><circle r="5" cx="151.35" cy="833.31" fill="#8b9ad9"></circle><circle r="5" cx="279.25" cy="579.24" fill="#8b9ad9"></circle><circle r="5" cx="289.33" cy="695.3" fill="#8b9ad9"></circle><circle r="5" cx="284.07" cy="793.89" fill="#8b9ad9"></circle><circle r="5" cx="385.65" cy="516.9" fill="#8b9ad9"></circle><circle r="5" cx="375.55" cy="583.33" fill="#8b9ad9"></circle><circle r="5" cx="375.75" cy="837.62" fill="#8b9ad9"></circle><circle r="5" cx="485.71" cy="729.22" fill="#8b9ad9"></circle><circle r="5" cx="505.28" cy="812.63" fill="#8b9ad9"></circle><circle r="5" cx="614.48" cy="364.83" fill="#8b9ad9"></circle><circle r="5" cx="598.61" cy="481.86" fill="#8b9ad9"></circle><circle r="5" cx="602.01" cy="689.41" fill="#8b9ad9"></circle><circle r="5" cx="583.34" cy="847.35" fill="#8b9ad9"></circle><circle r="5" cx="699.35" cy="184.01" fill="#8b9ad9"></circle><circle r="5" cx="703.79" cy="283.57" fill="#8b9ad9"></circle><circle r="5" cx="690.72" cy="395.49" fill="#8b9ad9"></circle><circle r="5" cx="711.06" cy="470.62" fill="#8b9ad9"></circle><circle r="5" cx="690.78" cy="586.52" fill="#8b9ad9"></circle><circle r="5" cx="813.52" cy="-70.43" fill="#8b9ad9"></circle><circle r="5" cx="845.72" cy="38.67" fill="#8b9ad9"></circle><circle r="5" cx="804.89" cy="180.4" fill="#8b9ad9"></circle><circle r="5" cx="807.27" cy="255.02" fill="#8b9ad9"></circle><circle r="5" cx="806.27" cy="511.65" fill="#8b9ad9"></circle><circle r="5" cx="809.82" cy="690.46" fill="#8b9ad9"></circle><circle r="5" cx="910.62" cy="253.52" fill="#8b9ad9"></circle><circle r="5" cx="908.34" cy="496.66" fill="#8b9ad9"></circle><circle r="5" cx="953.8" cy="578.46" fill="#8b9ad9"></circle><circle r="5" cx="928.09" cy="724" fill="#8b9ad9"></circle><circle r="5" cx="928.61" cy="796.47" fill="#8b9ad9"></circle></g><defs><mask id="SvgjsMask3294"><rect width="876" height="755" fill="#ffffff"></rect></mask><linearGradient x1="0%" y1="50%" x2="100%" y2="50%" gradientUnits="userSpaceOnUse" id="SvgjsLinearGradient3295"><stop stop-color="#0e2a47" offset="0"></stop><stop stop-color="#00459e" offset="1"></stop></linearGradient><radialGradient id="SvgjsRadialGradient3296"><stop stop-color="#ffffff" offset="0.1"></stop><stop stop-color="#1735b3" offset="0.2"></stop><stop stop-color="rgba(23, 53, 179, 0)" offset="1"></stop></radialGradient></defs></svg>