<svg xmlns="http://www.w3.org/2000/svg" version="1.1" xmlns:xlink="http://www.w3.org/1999/xlink" xmlns:svgjs="http://svgjs.com/svgjs" width="1400" height="780" preserveAspectRatio="none" viewBox="0 0 1400 780"><g mask="url(&quot;#SvgjsMask1007&quot;)" fill="none"><path d="M580.49 468.35L652.86 468.35L652.86 540.72L580.49 540.72z" fill="rgba(83, 94, 217, 1)"></path><path d="M397.13 600.31L400.24 600.31L400.24 602.14L397.13 602.14z" stroke="rgba(83, 94, 217, 1)"></path><path d="M291.12 130.73a52.51 52.51 0 1 0 41.8 96.34z" fill="rgba(13, 132, 161, 1)"></path><path d="M629.34 75.47 a32.11 32.11 0 1 0 64.22 0 a32.11 32.11 0 1 0 -64.22 0z" stroke="rgba(0, 21, 41, 1)"></path><path d="M578.58 185.61a71.11 71.11 0 1 0-138.93 30.44z" stroke="rgba(0, 21, 41, 1)"></path><path d="M341.76 116.33 a57.45 57.45 0 1 0 114.9 0 a57.45 57.45 0 1 0 -114.9 0z" fill="rgba(13, 132, 161, 1)"></path><path d="M941.97 562.94a4.8 4.8 0 1 0 7.44-6.08z" stroke="rgba(83, 94, 217, 1)"></path><path d="M983.27 498.91 a19.23 19.23 0 1 0 38.46 0 a19.23 19.23 0 1 0 -38.46 0z" fill="rgba(0, 21, 41, 1)"></path><path d="M1304.6 50.82a3.76 3.76 0 1 0 7.52-0.02z" stroke="rgba(0, 21, 41, 1)"></path><path d="M707.67 761.6 a38.72 38.72 0 1 0 77.44 0 a38.72 38.72 0 1 0 -77.44 0z" fill="rgba(13, 132, 161, 1)"></path><path d="M535.29 760.81L571.13 760.81L571.13 771.93L535.29 771.93z" stroke="rgba(0, 21, 41, 1)"></path><path d="M800.46 494.22L842.55 494.22L842.55 542.02L800.46 542.02z" stroke="rgba(0, 21, 41, 1)"></path><path d="M1338.02 236.79 a6.23 6.23 0 1 0 12.46 0 a6.23 6.23 0 1 0 -12.46 0z" fill="rgba(0, 21, 41, 1)"></path><path d="M273.73 564.61L324.9 564.61L324.9 608.66L273.73 608.66z" stroke="rgba(0, 21, 41, 1)"></path><path d="M355.18 642.93a23.14 23.14 0 1 0 36.49 28.46z" fill="rgba(0, 21, 41, 1)"></path><path d="M1325.76 315.79a72.71 72.71 0 1 0-27.12-142.87z" stroke="rgba(0, 21, 41, 1)"></path><path d="M329.85 586.11L386.66 586.11L386.66 644.75L329.85 644.75z" fill="rgba(0, 21, 41, 1)"></path><path d="M623.08 284.6 a46.28 46.28 0 1 0 92.56 0 a46.28 46.28 0 1 0 -92.56 0z" fill="rgba(83, 94, 217, 1)"></path><path d="M243.94 754.15L311.82 754.15L311.82 822.03L243.94 822.03z" stroke="rgba(83, 94, 217, 1)"></path><path d="M1154.38 765.42L1185.95 765.42L1185.95 815.04L1154.38 815.04z" stroke="rgba(13, 132, 161, 1)"></path><path d="M995.99 442.02L1036.12 442.02L1036.12 482.15L995.99 482.15z" fill="rgba(0, 21, 41, 1)"></path><path d="M996.3 565.96a20.13 20.13 0 1 0-9.67 39.09z" fill="rgba(83, 94, 217, 1)"></path><path d="M911.08 160.73L915.2 160.73L915.2 194.43L911.08 194.43z" fill="rgba(0, 21, 41, 1)"></path></g><defs><mask id="SvgjsMask1007"><rect width="1400" height="780" fill="#ffffff"></rect></mask></defs></svg>